# xmcd
#
# Track frame offsets:
#	150
#	16046
#	29111
#	39265
#	53843
#	71202
#	85746
#	103188
#	115536
#	128021
#	145081
#	160292
#	172887
#	189735
#	199699
#	214293
#	226320
#	240365
#	249542
#	265413
#	281091
#	295912
#	312082
#	330392
#	342533
#
# Disc length: 4758 seconds
#
# Revision: 1
# Processed by: cddbd v1.5.2PL0 Copyright (c) Steve Scherf et al.
# Submitted via: audiograbber 1.83.01
#
DISCID=6b129419
DTITLE=Diversen - Hollandse Feest Hits Top 100
DYEAR=1900
DGENRE=
TTITLE0=Jannes - Als het zonnetje schijnt
TTITLE1=Frans Bauer - Ay,ay,ay 'n beetje amore
TTITLE2=Snappie - De kleine krokodil
TTITLE3=Zware Jongens - Alles heeft een einde
TTITLE4=Zangeres Zonder Naam - Mexico 
TTITLE5=Jop - Jij bent de zon
TTITLE6=Rene Riva - C'est lavie
TTITLE7=En Gij Dan - Tokkie he, Tokkie ho 
TTITLE8=Johnny and Rijk - De bostella
TTITLE9=Feest Politie - Komt allen tesamen
TTITLE10=Apres Ski Club - Slorie van de straat
TTITLE11=Bouke - Ik wil je
TTITLE12=De Deurzakkers - Het feest kan beginnen
TTITLE13=The Double DJ's - He He he
TTITLE14=De Smitjes and Co - De oude muzikant
TTITLE15=Jack - Het was winter
TTITLE16=Johnny Hoes - Och was ik maar
TTITLE17=Feesttappers - De Barman is gek
TTITLE18=Kurt Darren - Staan op
TTITLE19=Corry Konings - Adios amor
TTITLE20=Leon Vugts - Dolores
TTITLE21=Piet den Engel - Zoenen is gaaf
TTITLE22=The Cooldown Cafe - Met z'n alle 
TTITLE23=Tim Schalx - Met jou
TTITLE24=Maarten Schelvis - Verliefd
EXTD=
EXTT0=
EXTT1=
EXTT2=
EXTT3=
EXTT4=
EXTT5=
EXTT6=
EXTT7=
EXTT8=
EXTT9=
EXTT10=
EXTT11=
EXTT12=
EXTT13=
EXTT14=
EXTT15=
EXTT16=
EXTT17=
EXTT18=
EXTT19=
EXTT20=
EXTT21=
EXTT22=
EXTT23=
EXTT24=
PLAYORDER=
